GIL12_fast2_ik
nRows=3
nColumns=375

# SIMM Motion File Header:
name GIL12_fast2_ik
datacolumns 375
datarows 3
otherdata 1
range 0.29167000 0.30833000
endheader
time	pelvis_tx	pelvis_ty	pelvis_tz	pelvis_tilt	pelvis_list	pelvis_rotation	hip_flexion_r	hip_adduction_r	hip_rotation_r	knee_angle_r	ankle_angle_r	hip_flexion_l	hip_adduction_l	hip_rotation_l	knee_angle_l	ankle_angle_l	lumbar_extension	lumbar_bending	lumbar_rotation	subtalar_angle_r	mtp_angle_r	subtalar_angle_l	mtp_angle_l	asis_r_px	asis_r_py	asis_r_pz	asis_l_px	asis_l_py	asis_l_pz	midasis_px	midasis_py	midasis_pz	psis_r_px	psis_r_py	psis_r_pz	psis_l_px	psis_l_py	psis_l_pz	hip_r_px	hip_r_py	hip_r_pz	hip_l_px	hip_l_py	hip_l_pz	midhip_px	midhip_py	midhip_pz	epicondLat_r_px	epicondLat_r_py	epicondLat_r_pz	epicondMed_r_px	epicondMed_r_py	epicondMed_r_pz	thighwand_r_px	thighwand_r_py	thighwand_r_pz	upperleg1_r_px	upperleg1_r_py	upperleg1_r_pz	upperleg2_r_px	upperleg2_r_py	upperleg2_r_pz	malleolusLat_r_px	malleolusLat_r_py	malleolusLat_r_pz	malleolusMedv_r_px	malleolusMedv_r_py	malleolusMedv_r_pz	shankwand_r_px	shankwand_r_py	shankwand_r_pz	lowerleg1_r_px	lowerleg1_r_py	lowerleg1_r_pz	knee_r_px	knee_r_py	knee_r_pz	ankle_r_px	ankle_r_py	ankle_r_pz	toe_r_px	toe_r_py	toe_r_pz	epicondLat_l_px	epicondLat_l_py	epicondLat_l_pz	epicondMed_l_px	epicondMed_l_py	epicondMed_l_pz	thighwand_l_px	thighwand_l_py	thighwand_l_pz	upperleg1_l_px	upperleg1_l_py	upperleg1_l_pz	upperleg2_l_px	upperleg2_l_py	upperleg2_l_pz	malleolusLat_l_px	malleolusLat_l_py	malleolusLat_l_pz	malleolusMedv_l_px	malleolusMedv_l_py	malleolusMedv_l_pz	shankwand_l_px	shankwand_l_py	shankwand_l_pz	lowerleg1_l_px	lowerleg1_l_py	lowerleg1_l_pz	knee_l_px	knee_l_py	knee_l_pz	ankle_l_px	ankle_l_py	ankle_l_pz	toe_l_px	toe_l_py	toe_l_pz	subclavicle_r_px	subclavicle_r_py	subclavicle_r_pz	subclavicle_l_px	subclavicle_l_py	subclavicle_l_pz	neck_px	neck_py	neck_pz	sternalnotch_px	sternalnotch_py	sternalnotch_pz	xyphoidprocess_px	xyphoidprocess_py	xyphoidprocess_pz	midhip_tx	midhip_ty	midhip_tz	hip_r_tx	hip_r_ty	hip_r_tz	hip_l_tx	hip_l_ty	hip_l_tz	knee_r_tx	knee_r_ty	knee_r_tz	knee_l_tx	knee_l_ty	knee_l_tz	ankle_r_tx	ankle_r_ty	ankle_r_tz	ankle_l_tx	ankle_l_ty	ankle_l_tz	midasis_tx	midasis_ty	midasis_tz	asis_r_tx	asis_r_ty	asis_r_tz	asis_l_tx	asis_l_ty	asis_l_tz	psis_r_tx	psis_r_ty	psis_r_tz	psis_l_tx	psis_l_ty	psis_l_tz	epicondLat_r_tx	epicondLat_r_ty	epicondLat_r_tz	epicondLat_l_tx	epicondLat_l_ty	epicondLat_l_tz	epicondMed_r_tx	epicondMed_r_ty	epicondMed_r_tz	epicondMed_l_tx	epicondMed_l_ty	epicondMed_l_tz	malleolusLat_r_tx	malleolusLat_r_ty	malleolusLat_r_tz	malleolusLat_l_tx	malleolusLat_l_ty	malleolusLat_l_tz	malleolusMedv_r_tx	malleolusMedv_r_ty	malleolusMedv_r_tz	malleolusMedv_l_tx	malleolusMedv_l_ty	malleolusMedv_l_tz	neck_tx	neck_ty	neck_tz	subclavicle_r_tx	subclavicle_r_ty	subclavicle_r_tz	subclavicle_l_tx	subclavicle_l_ty	subclavicle_l_tz	sternalnotch_tx	sternalnotch_ty	sternalnotch_tz	xyphoidprocess_tx	xyphoidprocess_ty	xyphoidprocess_tz	thighwand_r_tx	thighwand_r_ty	thighwand_r_tz	thighwand_l_tx	thighwand_l_ty	thighwand_l_tz	upperleg1_r_tx	upperleg1_r_ty	upperleg1_r_tz	upperleg1_l_tx	upperleg1_l_ty	upperleg1_l_tz	upperleg2_r_tx	upperleg2_r_ty	upperleg2_r_tz	upperleg2_l_tx	upperleg2_l_ty	upperleg2_l_tz	shankwand_r_tx	shankwand_r_ty	shankwand_r_tz	shankwand_l_tx	shankwand_l_ty	shankwand_l_tz	lowerleg1_r_tx	lowerleg1_r_ty	lowerleg1_r_tz	lowerleg1_l_tx	lowerleg1_l_ty	lowerleg1_l_tz	toe_r_tx	toe_r_ty	toe_r_tz	toe_l_tx	toe_l_ty	toe_l_tz	ground_force_vx	ground_force_vy	ground_force_vz	ground_force_px	ground_force_py	ground_force_pz	ground_force_vx	ground_force_vy	ground_force_vz	ground_force_px	ground_force_py	ground_force_pz	ground_torque_x	ground_torque_y	ground_torque_z	ground_torque_x	ground_torque_y	ground_torque_z	ground_marker_px	ground_marker_py	ground_marker_pz	ground_marker_px	ground_marker_py	ground_marker_pz	ground_marker_px	ground_marker_py	ground_marker_pz	ground_marker_px	ground_marker_py	ground_marker_pz	ground_marker_px	ground_marker_py	ground_marker_pz	ground_marker_px	ground_marker_py	ground_marker_pz	ground_marker_px	ground_marker_py	ground_marker_pz	ground_marker_px	ground_marker_py	ground_marker_pz	ground_marker_px	ground_marker_py	ground_marker_pz	ground_marker_px	ground_marker_py	ground_marker_pz	ground_marker_px	ground_marker_py	ground_marker_pz	ground_marker_px	ground_marker_py	ground_marker_pz	ground_marker_px	ground_marker_py	ground_marker_pz	ground_marker_px	ground_marker_py	ground_marker_pz	ground_marker_px	ground_marker_py	ground_marker_pz	ground_marker_px	ground_marker_py	ground_marker_pz	ground_marker_px	ground_marker_py	ground_marker_pz	ground_marker_px	ground_marker_py	ground_marker_pz	ground_marker_px	ground_marker_py	ground_marker_pz	ground_marker_px	ground_marker_py	ground_marker_pz	ground_marker_px	ground_marker_py	ground_marker_pz	ground_marker_px	ground_marker_py	ground_marker_pz	ground_marker_px	ground_marker_py	ground_marker_pz	ground_marker_px	ground_marker_py	ground_marker_pz	ground_marker_px	ground_marker_py	ground_marker_pz	ground_marker_px	ground_marker_py	ground_marker_pz	ground_marker_px	ground_marker_py	ground_marker_pz	ground_marker_px	ground_marker_py	ground_marker_pz	ground_marker_px	ground_marker_py	ground_marker_pz	ground_marker_px	ground_marker_py	ground_marker_pz	ground_marker_px	ground_marker_py	ground_marker_pz	ground_marker_px	ground_marker_py	ground_marker_pz	ground_marker_px	ground_marker_py	ground_marker_pz	ground_marker_px	ground_marker_py	ground_marker_pz	ground_marker_px	ground_marker_py	ground_marker_pz	ground_marker_px	ground_marker_py	ground_marker_pz	ground_marker_px	ground_marker_py	ground_marker_pz
      0.29167000	      0.84105221	      0.68448225	     -0.26182584	      0.98839154	     -0.03427653	     -1.90639585	    -13.44373717	      1.15732470	     -1.23767181	      1.66567415	      5.73584684	     23.58545913	     -3.99782525	     -8.64222564	    -29.10024549	      0.87589611	    -20.61026427	     -1.40051400	      1.91906540	      0.00000000	      0.00000000	      0.00000000	      0.00000000	      0.87507091	      0.67360261	     -0.18022114	      0.88269128	      0.67573366	     -0.35448386	      0.85059921	      0.68464715	     -0.26150802	      0.75090345	      0.73332381	     -0.22862223	      0.75414071	      0.73358595	     -0.31386427	      0.79172202	      0.63855038	     -0.20645428	      0.79551378	      0.63854765	     -0.32035342	      0.79361790	      0.63854902	     -0.26340385	      0.73131205	      0.33139752	     -0.17075693	      0.73588788	      0.33300771	     -0.26424921	      0.87440261	      0.39119805	     -0.22640234	      0.81036859	      0.45875526	     -0.18286296	      0.78025763	      0.37634160	     -0.18717782	      0.65624114	      0.05297921	     -0.18232967	      0.67307205	      0.04982965	     -0.24099732	      0.69273969	      0.13305336	     -0.11237617	      0.69972297	      0.19071843	     -0.17494620	      0.72326629	      0.34399850	     -0.21491621	      0.66940158	      0.06019594	     -0.22235831	      0.75266952	      0.03056182	     -0.19263000	      0.91940878	      0.35556103	     -0.38686352	      0.94030568	      0.35931897	     -0.29724110	      0.93307219	      0.44561349	     -0.44958599	      0.91915614	      0.50469524	     -0.36815170	      0.95479536	      0.42893659	     -0.35337517	      0.88349202	      0.06835906	     -0.36923877	      0.91521230	      0.06356324	     -0.31232271	      1.00870702	      0.16643704	     -0.34486058	      0.94714119	      0.22700416	     -0.34925364	      0.92307124	      0.36213308	     -0.33744081	      0.90197367	      0.07395274	     -0.33467155	      0.98067495	      0.04332060	     -0.38259275	      0.89386067	      0.98121437	     -0.22834220	      0.89287445	      0.97963392	     -0.31702272	      0.80096437	      1.02241677	     -0.26920851	      0.87634597	      0.99025909	     -0.26493442	      0.94605458	      0.86653477	     -0.26865739	      0.79165700	      0.62777100	     -0.26202800	      0.79734600	      0.63950700	     -0.20721200	      0.80120800	      0.63884500	     -0.32459200	      0.72984400	      0.34526300	     -0.21402300	      0.92858600	      0.35495100	     -0.34076900	      0.67263400	      0.05891800	     -0.22149700	      0.90581000	      0.07482000	     -0.33289600	      0.84782600	      0.69783800	     -0.26463500	      0.84495800	      0.69833000	     -0.17747400	      0.85069400	      0.69734600	     -0.35179700	      0.71166000	      0.72769600	     -0.22739000	      0.71860800	      0.72140000	     -0.31188300	      0.72715100	      0.34481800	     -0.16810400	      0.92221200	      0.35480200	     -0.38834400	      0.71722200	      0.34773300	     -0.24816000	      0.95166200	      0.36076200	     -0.30231600	      0.66530100	      0.05953000	     -0.18881500	      0.88745600	      0.07555800	     -0.35970700	      0.66515300	      0.06481800	     -0.24866300	      0.91298200	      0.07485700	     -0.29921800	      0.79796800	      1.03596600	     -0.26853500	      0.89432300	      0.96997000	     -0.22992900	      0.88610400	      0.96487800	     -0.31863400	      0.87649600	      0.98047000	     -0.26624100	      0.91839500	      0.84526700	     -0.26729000	      0.86074500	      0.39987400	     -0.22930000	      0.94596000	      0.45628500	     -0.45284200	      0.80593800	      0.47152000	     -0.17930900	      0.93063600	      0.50820200	     -0.36924200	      0.77308400	      0.39098800	     -0.17804200	      0.96706300	      0.43294000	     -0.35555300	      0.70352200	      0.14882300	     -0.11336100	      1.00920900	      0.17709400	     -0.34194100	      0.70423600	      0.19966000	     -0.17587000	      0.95395500	      0.23159900	     -0.34802700	      0.75341000	      0.03935600	     -0.22631900	      0.98089700	      0.05367700	     -0.35552900	      5.32427678	    170.80660282	     -7.06648655	      0.75902173	      0.00000000	     -0.21945021	      0.00000000	      0.00000000	      0.00000000	      1.20066174	      0.00000000	     -0.37691681	      0.00000000	      0.36513828	      0.00000000	      0.00000000	      0.00000000	      0.00000000	      0.79165727	      0.62777102	     -0.26202750	      0.79734594	      0.63950717	     -0.20721203	      0.80120832	      0.63884479	     -0.32459161	      0.72984380	      0.34526303	     -0.21402270	      0.92858642	      0.35495138	     -0.34076926	      0.67263395	      0.05891785	     -0.22149712	      0.90580982	      0.07481958	     -0.33289564	      0.84782600	      0.69783819	     -0.26463532	      0.84495795	      0.69833010	     -0.17747395	      0.85069412	      0.69734633	     -0.35179672	      0.71166015	      0.72769552	     -0.22739011	      0.71860796	      0.72140020	     -0.31188312	      0.72715068	      0.34481800	     -0.16810375	      0.92221171	      0.35480219	     -0.38834384	      0.71722156	      0.34773257	     -0.24816009	      0.95166183	      0.36076200	     -0.30231571	      0.66530085	      0.05952987	     -0.18881531	      0.88745588	      0.07555830	     -0.35970676	      0.66515273	      0.06481804	     -0.24866305	      0.91298246	      0.07485712	     -0.29921773	      0.79796827	      1.03596568	     -0.26853523	      0.89432299	      0.96997011	     -0.22992918	      0.88610429	      0.96487796	     -0.31863353	      0.87649614	      0.98046988	     -0.26624086	      0.91839546	      0.84526670	     -0.26728973	      0.86074460	      0.39987409	     -0.22929960	      0.94595987	      0.45628491	     -0.45284197	      0.80593836	      0.47152022	     -0.17930917	      0.93063647	      0.50820237	     -0.36924237	      0.77308404	      0.39098790	     -0.17804217	      0.96706277	      0.43294045	     -0.35555321	      0.70352173	      0.14882323	     -0.11336114	      1.00920856	      0.17709398	     -0.34194094	      0.70423645	      0.19966027	     -0.17586973	      0.95395517	      0.23159888	     -0.34802705	      0.75340962	      0.03935624	     -0.22631904	      0.98089749	      0.05367741	     -0.35552913
      0.30000000	      0.85302296	      0.68228859	     -0.26287373	      1.25337630	     -0.00512278	     -2.38721571	    -15.01430797	      0.93392612	     -1.57916670	      2.05550678	      6.05600942	     23.95481467	     -4.10227633	     -8.89049949	    -25.67801191	      0.83924238	    -20.89877706	     -1.36840219	      2.13604325	      0.00000000	      0.00000000	      0.00000000	      0.00000000	      0.88640674	      0.67150991	     -0.18099389	      0.89547699	      0.67379681	     -0.35518518	      0.86256610	      0.68249742	     -0.26247579	      0.76237398	      0.73068970	     -0.23039498	      0.76632408	      0.73102583	     -0.31560670	      0.80344378	      0.63609075	     -0.20794761	      0.80818971	      0.63618440	     -0.32181095	      0.80581674	      0.63613758	     -0.26487928	      0.73549066	      0.33054175	     -0.17204879	      0.74134059	      0.33171000	     -0.26547658	      0.88064838	      0.38682881	     -0.22597864	      0.81762004	      0.45599966	     -0.18351886	      0.78567412	      0.37428674	     -0.18796362	      0.65611373	      0.05343208	     -0.18356939	      0.67367229	      0.04977500	     -0.24199383	      0.69297641	      0.13318135	     -0.11343593	      0.70173313	      0.19047483	     -0.17612414	      0.72830362	      0.34319110	     -0.21635377	      0.66992297	      0.06027397	     -0.22344500	      0.75243024	      0.02989016	     -0.19238252	      0.93553941	      0.35464313	     -0.38792872	      0.95606109	      0.35861376	     -0.29822879	      0.94840949	      0.44486240	     -0.45057924	      0.93352184	      0.50375967	     -0.36918315	      0.96996540	      0.42840708	     -0.35429268	      0.91974607	      0.06585092	     -0.37269922	      0.95153312	      0.06283855	     -0.31569816	      1.03764719	      0.17231163	     -0.34705110	      0.97197728	      0.22842058	     -0.35120745	      0.93839496	      0.36141472	     -0.33842013	      0.93767015	      0.07245106	     -0.33801611	      1.01848803	      0.04778108	     -0.38585463	      0.90552327	      0.97855040	     -0.22868074	      0.90497993	      0.97720649	     -0.31736899	      0.81284985	      1.01990174	     -0.26990112	      0.88819561	      0.98770011	     -0.26533586	      0.95786997	      0.86395593	     -0.26903989	      0.80376500	      0.62557800	     -0.26336600	      0.80899200	      0.63742600	     -0.20831300	      0.81385600	      0.63662400	     -0.32565500	      0.73498500	      0.34522400	     -0.21456800	      0.94474400	      0.35391600	     -0.34064800	      0.67330200	      0.05970300	     -0.22196200	      0.94139700	      0.07194300	     -0.33764300	      0.85967900	      0.69592100	     -0.26538600	      0.85606600	      0.69651700	     -0.17821800	      0.86329100	      0.69532600	     -0.35255400	      0.72292500	      0.72531600	     -0.22978000	      0.73079400	      0.71867600	     -0.31410400	      0.73166000	      0.34508400	     -0.16868900	      0.93855600	      0.35357600	     -0.38824600	      0.72382900	      0.34710100	     -0.24859300	      0.96499200	      0.35919700	     -0.30095700	      0.66560600	      0.06052200	     -0.18936800	      0.92349300	      0.07186700	     -0.36476600	      0.66594900	      0.06583500	     -0.24933800	      0.94834000	      0.07166600	     -0.30402500	      0.81003500	      1.03371400	     -0.26910600	      0.90625300	      0.96753600	     -0.23055700	      0.89804900	      0.96234000	     -0.31934600	      0.88830100	      0.97799900	     -0.26682300	      0.93007700	      0.84273200	     -0.26778900	      0.86751800	      0.39666400	     -0.22835600	      0.96091100	      0.45478800	     -0.45175900	      0.81242700	      0.47020900	     -0.17911200	      0.94430700	      0.50650300	     -0.36834900	      0.77914200	      0.39060300	     -0.17789700	      0.98081900	      0.43132000	     -0.35410900	      0.70439000	      0.14949700	     -0.11375100	      1.03694700	      0.18203900	     -0.34316500	      0.70637000	      0.20031200	     -0.17648800	      0.97791800	      0.23232700	     -0.34936900	      0.75365600	      0.03934700	     -0.22643800	      1.01841900	      0.05637200	     -0.35888300	      7.25440637	    182.24570655	     -7.39443231	      0.76014581	      0.00000000	     -0.22019386	      0.00000000	      0.00000000	      0.00000000	      1.20443262	      0.00000000	     -0.37703323	      0.00000000	      0.46488617	      0.00000000	      0.00000000	      0.00000000	      0.00000000	      0.80376470	      0.62557751	     -0.26336640	      0.80899221	      0.63742566	     -0.20831323	      0.81385559	      0.63662422	     -0.32565472	      0.73498541	      0.34522435	     -0.21456818	      0.94474351	      0.35391629	     -0.34064811	      0.67330247	      0.05970300	     -0.22196181	      0.94139713	      0.07194347	     -0.33764255	      0.85967851	      0.69592142	     -0.26538625	      0.85606575	      0.69651675	     -0.17821802	      0.86329132	      0.69532603	     -0.35255447	      0.72292483	      0.72531646	     -0.22978039	      0.73079371	      0.71867627	     -0.31410411	      0.73165989	      0.34508449	     -0.16868874	      0.93855554	      0.35357574	     -0.38824636	      0.72382855	      0.34710148	     -0.24859290	      0.96499217	      0.35919720	     -0.30095658	      0.66560644	      0.06052160	     -0.18936807	      0.92349297	      0.07186685	     -0.36476609	      0.66594851	      0.06583510	     -0.24933806	      0.94834030	      0.07166614	     -0.30402544	      0.81003463	      1.03371358	     -0.26910615	      0.90625292	      0.96753639	     -0.23055673	      0.89804852	      0.96233976	     -0.31934562	      0.88830107	      0.97799861	     -0.26682276	      0.93007743	      0.84273213	     -0.26778895	      0.86751759	      0.39666381	     -0.22835630	      0.96091127	      0.45478785	     -0.45175916	      0.81242663	      0.47020927	     -0.17911175	      0.94430745	      0.50650251	     -0.36834940	      0.77914184	      0.39060307	     -0.17789663	      0.98081946	      0.43132037	     -0.35410851	      0.70438963	      0.14949672	     -0.11375105	      1.03694713	      0.18203919	     -0.34316513	      0.70636988	      0.20031203	     -0.17648794	      0.97791815	      0.23232661	     -0.34936854	      0.75365585	      0.03934652	     -0.22643758	      1.01841938	      0.05637156	     -0.35888326
      0.30833000	      0.86517206	      0.67988741	     -0.26399453	      1.52019030	      0.01402938	     -2.88145564	    -16.56434408	      0.69446097	     -1.83043396	      2.36244284	      6.41393691	     24.23611439	     -4.21391949	     -9.19611497	    -22.24217967	      0.72590909	    -21.17418275	     -1.34876900	      2.39906437	      0.00000000	      0.00000000	      0.00000000	      0.00000000	      0.89789913	      0.66921811	     -0.18183572	      0.90845879	      0.67164526	     -0.35594118	      0.87471035	      0.68014042	     -0.26351427	      0.77402218	      0.72784786	     -0.23227278	      0.77870455	      0.72825033	     -0.31744711	      0.81533733	      0.63342843	     -0.20952182	      0.82106342	      0.63360827	     -0.32333998	      0.81820037	      0.63351835	     -0.26643090	      0.74005223	      0.32962355	     -0.17344835	      0.74702462	      0.33033407	     -0.26680368	      0.88707333	      0.38242065	     -0.22583812	      0.82513599	      0.45314851	     -0.18434903	      0.79139881	      0.37216513	     -0.18890892	      0.65607185	      0.05396079	     -0.18489048	      0.67425233	      0.04977454	     -0.24308874	      0.69348278	      0.13333068	     -0.11461709	      0.70397123	      0.19022125	     -0.17740634	      0.73366030	      0.34229812	     -0.21787677	      0.67046719	      0.06040845	     -0.22462425	      0.75222117	      0.02925774	     -0.19235318	      0.95139879	      0.35333118	     -0.38900909	      0.97161245	      0.35752466	     -0.29924939	      0.96355924	      0.44366032	     -0.45164305	      0.94784489	      0.50242436	     -0.37030610	      0.98499025	      0.42744055	     -0.35528866	      0.95544838	      0.06437227	     -0.37591377	      0.98721881	      0.06314413	     -0.31883712	      1.06561378	      0.17855687	     -0.34912115	      0.99622127	      0.23000672	     -0.35307326	      0.95346176	      0.36025252	     -0.33942094	      0.97278083	      0.07193924	     -0.34112757	      1.05522167	      0.05311513	     -0.38885410	      0.91732223	      0.97570603	     -0.22919928	      0.91716919	      0.97459567	     -0.31789228	      0.82483773	      1.01718142	     -0.27071824	      0.90015757	      0.98495512	     -0.26590610	      0.96982805	      0.86120933	     -0.26962915	      0.81606000	      0.62315600	     -0.26474800	      0.82077700	      0.63512500	     -0.20947100	      0.82667800	      0.63416100	     -0.32676300	      0.74043800	      0.34508600	     -0.21518400	      0.96058000	      0.35264300	     -0.34043800	      0.67399000	      0.06050200	     -0.22241500	      0.97648200	      0.07015300	     -0.34233900	      0.87168000	      0.69377600	     -0.26619000	      0.86729300	      0.69449200	     -0.17900800	      0.87606600	      0.69306000	     -0.35337300	      0.73427900	      0.72272200	     -0.23217200	      0.74306700	      0.71571500	     -0.31633000	      0.73654900	      0.34526100	     -0.16934900	      0.95455300	      0.35208900	     -0.38805500	      0.73111900	      0.34552600	     -0.24957800	      0.97773200	      0.35684000	     -0.29958000	      0.66597000	      0.06154800	     -0.18990600	      0.95915200	      0.06936300	     -0.36982200	      0.66675800	      0.06678200	     -0.24993100	      0.98348900	      0.06955100	     -0.30888300	      0.82205400	      1.03115600	     -0.26978400	      0.91821100	      0.96474300	     -0.23125600	      0.91011700	      0.95953400	     -0.32015600	      0.90025900	      0.97527200	     -0.26758100	      0.94189000	      0.83989100	     -0.26847800	      0.87454100	      0.39340300	     -0.22762500	      0.97552900	      0.45290300	     -0.45046100	      0.81825600	      0.46829500	     -0.17907500	      0.95748500	      0.50407600	     -0.36712200	      0.78548900	      0.38993000	     -0.17813400	      0.99399700	      0.42910800	     -0.35247700	      0.70548200	      0.15018400	     -0.11418000	      1.06373100	      0.18734700	     -0.34399100	      0.70863100	      0.20074400	     -0.17691500	      1.00136500	      0.23331600	     -0.35056300	      0.75388000	      0.03932800	     -0.22656500	      1.05508400	      0.06006000	     -0.36203700	      9.74686289	    194.76092791	     -7.87720195	      0.76111603	      0.00000000	     -0.22090613	      0.00000000	      0.00000000	      0.00000000	      1.20790686	      0.00000000	     -0.37718036	      0.00000000	      0.56318604	      0.00000000	      0.00000000	      0.00000000	      0.00000000	      0.81606025	      0.62315607	     -0.26474753	      0.82077658	      0.63512474	     -0.20947076	      0.82667798	      0.63416129	     -0.32676339	      0.74043816	      0.34508637	     -0.21518424	      0.96057951	      0.35264257	     -0.34043789	      0.67398977	      0.06050159	     -0.22241472	      0.97648185	      0.07015336	     -0.34233925	      0.87167966	      0.69377601	     -0.26619017	      0.86729330	      0.69449216	     -0.17900750	      0.87606609	      0.69305986	     -0.35337287	      0.73427945	      0.72272217	     -0.23217198	      0.74306726	      0.71571451	     -0.31632966	      0.73654950	      0.34526059	     -0.16934922	      0.95455331	      0.35208920	     -0.38805491	      0.73111945	      0.34552643	     -0.24957782	      0.97773159	      0.35684007	     -0.29958016	      0.66597009	      0.06154816	     -0.18990564	      0.95915192	      0.06936277	     -0.36982191	      0.66675836	      0.06678240	     -0.24993134	      0.98348927	      0.06955073	     -0.30888286	      0.82205361	      1.03115582	     -0.26978433	      0.91821110	      0.96474260	     -0.23125605	      0.91011745	      0.95953429	     -0.32015619	      0.90025890	      0.97527164	     -0.26758078	      0.94189048	      0.83989066	     -0.26847830	      0.87454134	      0.39340270	     -0.22762528	      0.97552902	      0.45290339	     -0.45046103	      0.81825572	      0.46829453	     -0.17907515	      0.95748496	      0.50407618	     -0.36712188	      0.78548855	      0.38992953	     -0.17813379	      0.99399722	      0.42910823	     -0.35247749	      0.70548218	      0.15018380	     -0.11417961	      1.06373072	      0.18734725	     -0.34399122	      0.70863086	      0.20074438	     -0.17691530	      1.00136507	      0.23331629	     -0.35056263	      0.75387979	      0.03932827	     -0.22656512	      1.05508387	      0.06005975	     -0.36203697
